<svg width="121" height="84" viewBox="0 0 121 84" fill="none" xmlns="http://www.w3.org/2000/svg">
<path d="M81.3424 39.4884L72.8569 41.5726L68.0201 33.1346L65.0286 27.9368L61.658 22.1314L53.8213 8.53773H41.1562L9.45553 63.5284L15.8007 74.4979H20.6123V82.9359H13.3486C12.6127 82.9338 11.8902 82.7387 11.253 82.3701C10.6158 82.0015 10.0862 81.4721 9.71675 80.8348L0.95314 65.6464C0.583348 65.005 0.388672 64.2774 0.388672 63.5369C0.388672 62.7963 0.583348 62.0687 0.95314 61.4273L35.0891 2.22607C35.4585 1.58876 35.9882 1.05944 36.6254 0.690817C37.2626 0.322192 37.9851 0.127115 38.7209 0.125H56.2482C56.984 0.127115 57.7065 0.322192 58.3437 0.690817C58.9809 1.05944 59.5106 1.58876 59.88 2.22607L71.357 22.1145L72.8569 24.7809L76.2275 30.5779L77.7274 33.1768L81.3424 39.4884Z" fill="url(#paint0_linear_8004_2089)"/>
<path d="M46.0113 60.9797L34.5428 80.8681C34.1744 81.507 33.6452 82.038 33.0079 82.4082C32.3707 82.7783 31.6476 82.9747 30.9109 82.9776H20.6137L9.43164 63.5702L15.7768 74.5396H28.4167L41.107 52.5332L46.0113 60.9797Z" fill="url(#paint1_linear_8004_2089)"/>
<path d="M81.3428 43.6821L72.5792 58.8705C72.2108 59.5094 71.6816 60.0404 71.0443 60.4106C70.4071 60.7807 69.684 60.9771 68.9473 60.98H58.7006L55.33 55.1747L53.8301 52.5758H66.4699L72.8067 41.6063L71.6017 39.5137H81.2838C81.6533 40.1439 81.853 40.8594 81.8633 41.5901C81.8737 42.3208 81.6943 43.0416 81.3428 43.6821Z" fill="url(#paint2_linear_8004_2089)"/>
<path d="M104.583 8.57999H91.8927L79.2528 30.578L74.416 22.1399L85.893 2.25146C86.2624 1.61415 86.7921 1.08483 87.4292 0.716208C88.0664 0.347583 88.7889 0.152506 89.5248 0.150391H99.7378L104.583 8.57999Z" fill="url(#paint3_linear_8004_2089)"/>
<path d="M119.397 21.6845L85.2696 80.8773C84.9012 81.5162 84.372 82.0472 83.7348 82.4174C83.0975 82.7875 82.3744 82.9839 81.6377 82.9869H64.1105C63.3738 82.9839 62.6508 82.7875 62.0135 82.4174C61.3762 82.0472 60.847 81.5162 60.4787 80.8773L50.5016 63.5794L47.5102 58.3815L44.1396 52.5762L42.6397 49.9773L39.0078 43.674L47.4849 41.5645L52.3302 50.0026L53.8301 52.6015L55.33 55.2004L58.7007 61.0058L60.1922 63.5962L65.0374 72.0343L66.5374 74.6332H79.1772L110.886 19.6341L104.55 8.6646H99.8559L99.7043 0.226562H106.968C107.704 0.228677 108.426 0.423761 109.064 0.792386C109.701 1.16101 110.23 1.69032 110.6 2.32764L119.363 17.5161C119.729 18.1485 119.924 18.8651 119.93 19.5958C119.936 20.3266 119.752 21.0463 119.397 21.6845Z" fill="url(#paint4_linear_8004_2089)"/>
<path d="M53.8471 30.5767L47.5103 41.5462L48.7238 43.6557H39.0332C38.6634 43.0143 38.4688 42.2867 38.4688 41.5462C38.4688 40.8056 38.6634 40.078 39.0332 39.4366L47.7968 24.2482C48.1659 23.6081 48.6964 23.0763 49.3353 22.706C49.9742 22.3358 50.699 22.1402 51.4371 22.1387H61.6922L65.0628 27.944L66.5628 30.543L53.8471 30.5767Z" fill="url(#paint5_linear_8004_2089)"/>
<defs>
<linearGradient id="paint0_linear_8004_2089" x1="-2.40905" y1="59.8157" x2="69.257" y2="18.4948" gradientUnits="userSpaceOnUse">
<stop offset="0.2" stop-color="#668CFF"/>
<stop offset="0.49" stop-color="#00AAFF"/>
<stop offset="0.8" stop-color="#00BFB5"/>
</linearGradient>
<linearGradient id="paint1_linear_8004_2089" x1="16.4678" y1="75.7462" x2="45.028" y2="59.2751" gradientUnits="userSpaceOnUse">
<stop offset="0.5" stop-color="#668CFF"/>
<stop offset="1" stop-color="#00AAFF" stop-opacity="0"/>
</linearGradient>
<linearGradient id="paint2_linear_8004_2089" x1="57.0912" y1="58.2039" x2="83.3915" y2="43.038" gradientUnits="userSpaceOnUse">
<stop stop-color="#00AAFF" stop-opacity="0"/>
<stop offset="0.4" stop-color="#00BFB5"/>
</linearGradient>
<linearGradient id="paint3_linear_8004_2089" x1="73.7756" y1="21.1611" x2="102.336" y2="4.69844" gradientUnits="userSpaceOnUse">
<stop stop-color="#00BFB5" stop-opacity="0"/>
<stop offset="0.5" stop-color="#00CC7C"/>
</linearGradient>
<linearGradient id="paint4_linear_8004_2089" x1="51.1758" y1="64.7523" x2="122.833" y2="23.4398" gradientUnits="userSpaceOnUse">
<stop offset="0.2" stop-color="#00AAFF"/>
<stop offset="0.51" stop-color="#00BFB5"/>
<stop offset="0.8" stop-color="#00CC7C"/>
</linearGradient>
<linearGradient id="paint5_linear_8004_2089" x1="37.0024" y1="40.1623" x2="63.3112" y2="24.988" gradientUnits="userSpaceOnUse">
<stop offset="0.6" stop-color="#00AAFF"/>
<stop offset="1" stop-color="#00BFB5" stop-opacity="0"/>
</linearGradient>
</defs>
</svg>
