<svg version="1.1" xmlns="http://www.w3.org/2000/svg" viewBox="0 0 1907.2612115629754 560.301933347755" width="1907.2612115629754" height="560.301933347755">
  <!-- svg-source:excalidraw -->
  <g stroke-linecap="round" transform="translate(162.81493166792734 347.9090492976211) rotate(0 74.14659058319398 73.38209745783479)"><path d="M148.29 73.38 C148.29 76.12, 148.14 78.88, 147.83 81.6 C147.52 84.32, 147.05 87.04, 146.43 89.71 C145.82 92.38, 145.05 95.03, 144.13 97.62 C143.22 100.2, 142.15 102.75, 140.95 105.22 C139.75 107.69, 138.4 110.1, 136.93 112.42 C135.46 114.74, 133.84 116.99, 132.12 119.14 C130.39 121.28, 128.53 123.33, 126.58 125.27 C124.62 127.21, 122.54 129.05, 120.38 130.75 C118.21 132.46, 115.94 134.06, 113.59 135.52 C111.25 136.97, 108.81 138.31, 106.32 139.5 C103.82 140.69, 101.25 141.74, 98.64 142.65 C96.02 143.55, 93.34 144.31, 90.65 144.92 C87.95 145.53, 85.2 146, 82.45 146.3 C79.7 146.61, 76.91 146.76, 74.15 146.76 C71.38 146.76, 68.59 146.61, 65.84 146.3 C63.09 146, 60.35 145.53, 57.65 144.92 C54.95 144.31, 52.27 143.55, 49.66 142.65 C47.05 141.74, 44.47 140.69, 41.98 139.5 C39.48 138.31, 37.04 136.97, 34.7 135.52 C32.36 134.06, 30.08 132.46, 27.92 130.75 C25.75 129.05, 23.67 127.21, 21.72 125.27 C19.76 123.33, 17.9 121.28, 16.18 119.14 C14.45 116.99, 12.84 114.74, 11.36 112.42 C9.89 110.1, 8.54 107.69, 7.34 105.22 C6.14 102.75, 5.07 100.2, 4.16 97.62 C3.25 95.03, 2.47 92.38, 1.86 89.71 C1.24 87.04, 0.78 84.32, 0.47 81.6 C0.16 78.88, 0 76.12, 0 73.38 C0 70.64, 0.16 67.89, 0.47 65.17 C0.78 62.44, 1.24 59.72, 1.86 57.05 C2.47 54.38, 3.25 51.73, 4.16 49.15 C5.07 46.56, 6.14 44.01, 7.34 41.54 C8.54 39.08, 9.89 36.66, 11.36 34.34 C12.84 32.02, 14.45 29.77, 16.18 27.63 C17.9 25.49, 19.76 23.43, 21.72 21.49 C23.67 19.56, 25.75 17.72, 27.92 16.01 C30.08 14.3, 32.36 12.7, 34.7 11.25 C37.04 9.79, 39.48 8.46, 41.98 7.27 C44.47 6.08, 47.05 5.02, 49.66 4.12 C52.27 3.21, 54.95 2.45, 57.65 1.84 C60.35 1.23, 63.09 0.77, 65.84 0.46 C68.59 0.15, 71.38 0, 74.15 0 C76.91 0, 79.7 0.15, 82.45 0.46 C85.2 0.77, 87.95 1.23, 90.65 1.84 C93.34 2.45, 96.02 3.21, 98.64 4.12 C101.25 5.02, 103.82 6.08, 106.32 7.27 C108.81 8.46, 111.25 9.79, 113.59 11.25 C115.94 12.7, 118.21 14.3, 120.38 16.01 C122.54 17.72, 124.62 19.56, 126.58 21.49 C128.53 23.43, 130.39 25.49, 132.12 27.63 C133.84 29.77, 135.46 32.02, 136.93 34.34 C138.4 36.66, 139.75 39.08, 140.95 41.54 C142.15 44.01, 143.22 46.56, 144.13 49.15 C145.05 51.73, 145.82 54.38, 146.43 57.05 C147.05 59.72, 147.52 62.44, 147.83 65.17 C148.14 67.89, 148.22 72.01, 148.29 73.38 C148.37 74.75, 148.37 72.01, 148.29 73.38" stroke="#862e9c" stroke-width="2" fill="none"></path></g><g transform="translate(203.9615222511211 400.2911467554568) rotate(0 33 21)"><text x="33" y="33" font-family="Helvetica, Segoe UI Emoji" font-size="36px" fill="#862e9c" text-anchor="middle" style="white-space: pre;" direction="ltr">App</text></g><g stroke-linecap="round" transform="translate(58.354581647568466 180.00469916261864) rotate(0 180 177.92953350864445)"><path d="M360 177.93 C360 182.16, 359.85 186.4, 359.54 190.62 C359.24 194.84, 358.78 199.06, 358.17 203.25 C357.56 207.44, 356.8 211.62, 355.89 215.75 C354.98 219.89, 353.91 224, 352.71 228.06 C351.5 232.12, 350.15 236.15, 348.65 240.11 C347.16 244.07, 345.51 248, 343.73 251.84 C341.96 255.69, 340.03 259.49, 337.98 263.2 C335.93 266.92, 333.74 270.57, 331.43 274.13 C329.11 277.68, 326.66 281.17, 324.1 284.56 C321.53 287.95, 318.84 291.25, 316.03 294.45 C313.23 297.65, 310.31 300.75, 307.28 303.74 C304.25 306.74, 301.11 309.63, 297.87 312.4 C294.64 315.17, 291.3 317.83, 287.87 320.37 C284.44 322.91, 280.92 325.33, 277.32 327.61 C273.71 329.9, 270.02 332.07, 266.26 334.09 C262.51 336.12, 258.67 338.02, 254.77 339.78 C250.88 341.54, 246.91 343.16, 242.9 344.64 C238.89 346.12, 234.82 347.46, 230.71 348.65 C226.6 349.84, 222.44 350.89, 218.26 351.79 C214.08 352.69, 209.85 353.45, 205.62 354.05 C201.38 354.65, 197.11 355.1, 192.84 355.41 C188.57 355.71, 184.28 355.86, 180 355.86 C175.72 355.86, 171.43 355.71, 167.16 355.41 C162.89 355.1, 158.62 354.65, 154.38 354.05 C150.15 353.45, 145.92 352.69, 141.74 351.79 C137.56 350.89, 133.4 349.84, 129.29 348.65 C125.18 347.46, 121.11 346.12, 117.1 344.64 C113.09 343.16, 109.12 341.54, 105.23 339.78 C101.33 338.02, 97.49 336.12, 93.74 334.09 C89.98 332.07, 86.29 329.9, 82.68 327.61 C79.08 325.33, 75.56 322.91, 72.13 320.37 C68.7 317.83, 65.36 315.17, 62.13 312.4 C58.89 309.63, 55.75 306.74, 52.72 303.74 C49.69 300.75, 46.77 297.65, 43.97 294.45 C41.16 291.25, 38.47 287.95, 35.9 284.56 C33.34 281.17, 30.89 277.68, 28.57 274.13 C26.26 270.57, 24.07 266.92, 22.02 263.2 C19.97 259.49, 18.04 255.69, 16.27 251.84 C14.49 248, 12.84 244.07, 11.35 240.11 C9.85 236.15, 8.5 232.12, 7.29 228.06 C6.09 224, 5.02 219.89, 4.11 215.75 C3.2 211.62, 2.44 207.44, 1.83 203.25 C1.22 199.06, 0.76 194.84, 0.46 190.62 C0.15 186.4, 0 182.16, 0 177.93 C0 173.7, 0.15 169.46, 0.46 165.24 C0.76 161.02, 1.22 156.8, 1.83 152.61 C2.44 148.42, 3.2 144.24, 4.11 140.11 C5.02 135.97, 6.09 131.86, 7.29 127.8 C8.5 123.74, 9.85 119.71, 11.35 115.75 C12.84 111.79, 14.49 107.86, 16.27 104.01 C18.04 100.17, 19.97 96.37, 22.02 92.66 C24.07 88.94, 26.26 85.29, 28.57 81.73 C30.89 78.17, 33.34 74.69, 35.9 71.3 C38.47 67.91, 41.16 64.61, 43.97 61.41 C46.77 58.21, 49.69 55.11, 52.72 52.11 C55.75 49.12, 58.89 46.23, 62.13 43.46 C65.36 40.69, 68.7 38.03, 72.13 35.49 C75.56 32.95, 79.08 30.53, 82.68 28.25 C86.29 25.96, 89.98 23.79, 93.74 21.76 C97.49 19.74, 101.33 17.84, 105.23 16.08 C109.12 14.32, 113.09 12.7, 117.1 11.22 C121.11 9.74, 125.18 8.4, 129.29 7.21 C133.4 6.02, 137.56 4.97, 141.74 4.07 C145.92 3.17, 150.15 2.41, 154.38 1.81 C158.62 1.21, 162.89 0.76, 167.16 0.45 C171.43 0.15, 175.72 0, 180 0 C184.28 0, 188.57 0.15, 192.84 0.45 C197.11 0.76, 201.38 1.21, 205.62 1.81 C209.85 2.41, 214.08 3.17, 218.26 4.07 C222.44 4.97, 226.6 6.02, 230.71 7.21 C234.82 8.4, 238.89 9.74, 242.9 11.22 C246.91 12.7, 250.88 14.32, 254.77 16.08 C258.67 17.84, 262.51 19.74, 266.26 21.76 C270.02 23.79, 273.71 25.96, 277.32 28.25 C280.92 30.53, 284.44 32.95, 287.87 35.49 C291.3 38.03, 294.64 40.69, 297.87 43.46 C301.11 46.23, 304.25 49.12, 307.28 52.11 C310.31 55.11, 313.23 58.21, 316.03 61.41 C318.84 64.61, 321.53 67.91, 324.1 71.3 C326.66 74.69, 329.11 78.17, 331.43 81.73 C333.74 85.29, 335.93 88.94, 337.98 92.66 C340.03 96.37, 341.96 100.17, 343.73 104.01 C345.51 107.86, 347.16 111.79, 348.65 115.75 C350.15 119.71, 351.5 123.74, 352.71 127.8 C353.91 131.86, 354.98 135.97, 355.89 140.11 C356.8 144.24, 357.56 148.42, 358.17 152.61 C358.78 156.8, 359.24 161.02, 359.54 165.24 C359.85 169.46, 360 173.7, 360 177.93" stroke="#364fc7" stroke-width="2" fill="none"></path></g><g transform="translate(181.05540298902997 258.2974513808749) rotate(0 48 21)"><text x="0" y="33" font-family="Helvetica, Segoe UI Emoji" font-size="36px" fill="#364fc7" text-anchor="start" style="white-space: pre;" direction="ltr">React</text></g><g stroke-linecap="round"><g transform="translate(321.2087970229595 399.26961575687164) rotate(0 224.69126076103453 -1.6696874308991028)"><path d="M0 0 C146.38 -1.09, 292.76 -2.18, 449.38 -3.34 M0 0 C117.59 -0.87, 235.18 -1.75, 449.38 -3.34" stroke="#862e9c" stroke-width="2" fill="none"></path></g><g transform="translate(321.2087970229595 399.26961575687164) rotate(0 224.69126076103453 -1.6696874308991028)"><path d="M421.27 7.13 C430.43 3.72, 439.58 0.31, 449.38 -3.34 M421.27 7.13 C428.63 4.39, 435.98 1.65, 449.38 -3.34" stroke="#862e9c" stroke-width="2" fill="none"></path></g><g transform="translate(321.2087970229595 399.26961575687164) rotate(0 224.69126076103453 -1.6696874308991028)"><path d="M421.12 -13.39 C430.32 -10.12, 439.53 -6.84, 449.38 -3.34 M421.12 -13.39 C428.51 -10.76, 435.91 -8.13, 449.38 -3.34" stroke="#862e9c" stroke-width="2" fill="none"></path></g></g><g transform="translate(475.96673698039103 344.70097440858626) rotate(0 80.5 16)"><text x="0" y="26" font-family="Helvetica, Segoe UI Emoji" font-size="28px" fill="#862e9c" text-anchor="start" style="white-space: pre;" direction="ltr">State update</text></g><g stroke-linecap="round" transform="translate(891.0044079684981 362.3472164654686) rotate(0 74.14659058319398 73.38209745783479)"><path d="M148.29 73.38 C148.29 76.12, 148.14 78.88, 147.83 81.6 C147.52 84.32, 147.05 87.04, 146.43 89.71 C145.82 92.38, 145.05 95.03, 144.13 97.62 C143.22 100.2, 142.15 102.75, 140.95 105.22 C139.75 107.69, 138.4 110.1, 136.93 112.42 C135.46 114.74, 133.84 116.99, 132.12 119.14 C130.39 121.28, 128.53 123.33, 126.58 125.27 C124.62 127.21, 122.54 129.05, 120.38 130.75 C118.21 132.46, 115.94 134.06, 113.59 135.52 C111.25 136.97, 108.81 138.31, 106.32 139.5 C103.82 140.69, 101.25 141.74, 98.64 142.65 C96.02 143.55, 93.34 144.31, 90.65 144.92 C87.95 145.53, 85.2 146, 82.45 146.3 C79.7 146.61, 76.91 146.76, 74.15 146.76 C71.38 146.76, 68.59 146.61, 65.84 146.3 C63.09 146, 60.35 145.53, 57.65 144.92 C54.95 144.31, 52.27 143.55, 49.66 142.65 C47.05 141.74, 44.47 140.69, 41.98 139.5 C39.48 138.31, 37.04 136.97, 34.7 135.52 C32.36 134.06, 30.08 132.46, 27.92 130.75 C25.75 129.05, 23.67 127.21, 21.72 125.27 C19.76 123.33, 17.9 121.28, 16.18 119.14 C14.45 116.99, 12.84 114.74, 11.36 112.42 C9.89 110.1, 8.54 107.69, 7.34 105.22 C6.14 102.75, 5.07 100.2, 4.16 97.62 C3.25 95.03, 2.47 92.38, 1.86 89.71 C1.24 87.04, 0.78 84.32, 0.47 81.6 C0.16 78.88, 0 76.12, 0 73.38 C0 70.64, 0.16 67.89, 0.47 65.17 C0.78 62.44, 1.24 59.72, 1.86 57.05 C2.47 54.38, 3.25 51.73, 4.16 49.15 C5.07 46.56, 6.14 44.01, 7.34 41.54 C8.54 39.08, 9.89 36.66, 11.36 34.34 C12.84 32.02, 14.45 29.77, 16.18 27.63 C17.9 25.49, 19.76 23.43, 21.72 21.49 C23.67 19.56, 25.75 17.72, 27.92 16.01 C30.08 14.3, 32.36 12.7, 34.7 11.25 C37.04 9.79, 39.48 8.46, 41.98 7.27 C44.47 6.08, 47.05 5.02, 49.66 4.12 C52.27 3.21, 54.95 2.45, 57.65 1.84 C60.35 1.23, 63.09 0.77, 65.84 0.46 C68.59 0.15, 71.38 0, 74.15 0 C76.91 0, 79.7 0.15, 82.45 0.46 C85.2 0.77, 87.95 1.23, 90.65 1.84 C93.34 2.45, 96.02 3.21, 98.64 4.12 C101.25 5.02, 103.82 6.08, 106.32 7.27 C108.81 8.46, 111.25 9.79, 113.59 11.25 C115.94 12.7, 118.21 14.3, 120.38 16.01 C122.54 17.72, 124.62 19.56, 126.58 21.49 C128.53 23.43, 130.39 25.49, 132.12 27.63 C133.84 29.77, 135.46 32.02, 136.93 34.34 C138.4 36.66, 139.75 39.08, 140.95 41.54 C142.15 44.01, 143.22 46.56, 144.13 49.15 C145.05 51.73, 145.82 54.38, 146.43 57.05 C147.05 59.72, 147.52 62.44, 147.83 65.17 C148.14 67.89, 148.22 72.01, 148.29 73.38 C148.37 74.75, 148.37 72.01, 148.29 73.38" stroke="#c92a2a" stroke-width="2" fill="none"></path></g><g transform="translate(932.150998551692 414.72931392330247) rotate(0 33 21)"><text x="33" y="33" font-family="Helvetica, Segoe UI Emoji" font-size="36px" fill="#c92a2a" text-anchor="middle" style="white-space: pre;" direction="ltr">App</text></g><g stroke-linecap="round" transform="translate(786.5440579481392 194.44286633046613) rotate(0 180 177.92953350864445)"><path d="M360 177.93 C360 182.16, 359.85 186.4, 359.54 190.62 C359.24 194.84, 358.78 199.06, 358.17 203.25 C357.56 207.44, 356.8 211.62, 355.89 215.75 C354.98 219.89, 353.91 224, 352.71 228.06 C351.5 232.12, 350.15 236.15, 348.65 240.11 C347.16 244.07, 345.51 248, 343.73 251.84 C341.96 255.69, 340.03 259.49, 337.98 263.2 C335.93 266.92, 333.74 270.57, 331.43 274.13 C329.11 277.68, 326.66 281.17, 324.1 284.56 C321.53 287.95, 318.84 291.25, 316.03 294.45 C313.23 297.65, 310.31 300.75, 307.28 303.74 C304.25 306.74, 301.11 309.63, 297.87 312.4 C294.64 315.17, 291.3 317.83, 287.87 320.37 C284.44 322.91, 280.92 325.33, 277.32 327.61 C273.71 329.9, 270.02 332.07, 266.26 334.09 C262.51 336.12, 258.67 338.02, 254.77 339.78 C250.88 341.54, 246.91 343.16, 242.9 344.64 C238.89 346.12, 234.82 347.46, 230.71 348.65 C226.6 349.84, 222.44 350.89, 218.26 351.79 C214.08 352.69, 209.85 353.45, 205.62 354.05 C201.38 354.65, 197.11 355.1, 192.84 355.41 C188.57 355.71, 184.28 355.86, 180 355.86 C175.72 355.86, 171.43 355.71, 167.16 355.41 C162.89 355.1, 158.62 354.65, 154.38 354.05 C150.15 353.45, 145.92 352.69, 141.74 351.79 C137.56 350.89, 133.4 349.84, 129.29 348.65 C125.18 347.46, 121.11 346.12, 117.1 344.64 C113.09 343.16, 109.12 341.54, 105.23 339.78 C101.33 338.02, 97.49 336.12, 93.74 334.09 C89.98 332.07, 86.29 329.9, 82.68 327.61 C79.08 325.33, 75.56 322.91, 72.13 320.37 C68.7 317.83, 65.36 315.17, 62.13 312.4 C58.89 309.63, 55.75 306.74, 52.72 303.74 C49.69 300.75, 46.77 297.65, 43.97 294.45 C41.16 291.25, 38.47 287.95, 35.9 284.56 C33.34 281.17, 30.89 277.68, 28.57 274.13 C26.26 270.57, 24.07 266.92, 22.02 263.2 C19.97 259.49, 18.04 255.69, 16.27 251.84 C14.49 248, 12.84 244.07, 11.35 240.11 C9.85 236.15, 8.5 232.12, 7.29 228.06 C6.09 224, 5.02 219.89, 4.11 215.75 C3.2 211.62, 2.44 207.44, 1.83 203.25 C1.22 199.06, 0.76 194.84, 0.46 190.62 C0.15 186.4, 0 182.16, 0 177.93 C0 173.7, 0.15 169.46, 0.46 165.24 C0.76 161.02, 1.22 156.8, 1.83 152.61 C2.44 148.42, 3.2 144.24, 4.11 140.11 C5.02 135.97, 6.09 131.86, 7.29 127.8 C8.5 123.74, 9.85 119.71, 11.35 115.75 C12.84 111.79, 14.49 107.86, 16.27 104.01 C18.04 100.17, 19.97 96.37, 22.02 92.66 C24.07 88.94, 26.26 85.29, 28.57 81.73 C30.89 78.17, 33.34 74.69, 35.9 71.3 C38.47 67.91, 41.16 64.61, 43.97 61.41 C46.77 58.21, 49.69 55.11, 52.72 52.11 C55.75 49.12, 58.89 46.23, 62.13 43.46 C65.36 40.69, 68.7 38.03, 72.13 35.49 C75.56 32.95, 79.08 30.53, 82.68 28.25 C86.29 25.96, 89.98 23.79, 93.74 21.76 C97.49 19.74, 101.33 17.84, 105.23 16.08 C109.12 14.32, 113.09 12.7, 117.1 11.22 C121.11 9.74, 125.18 8.4, 129.29 7.21 C133.4 6.02, 137.56 4.97, 141.74 4.07 C145.92 3.17, 150.15 2.41, 154.38 1.81 C158.62 1.21, 162.89 0.76, 167.16 0.45 C171.43 0.15, 175.72 0, 180 0 C184.28 0, 188.57 0.15, 192.84 0.45 C197.11 0.76, 201.38 1.21, 205.62 1.81 C209.85 2.41, 214.08 3.17, 218.26 4.07 C222.44 4.97, 226.6 6.02, 230.71 7.21 C234.82 8.4, 238.89 9.74, 242.9 11.22 C246.91 12.7, 250.88 14.32, 254.77 16.08 C258.67 17.84, 262.51 19.74, 266.26 21.76 C270.02 23.79, 273.71 25.96, 277.32 28.25 C280.92 30.53, 284.44 32.95, 287.87 35.49 C291.3 38.03, 294.64 40.69, 297.87 43.46 C301.11 46.23, 304.25 49.12, 307.28 52.11 C310.31 55.11, 313.23 58.21, 316.03 61.41 C318.84 64.61, 321.53 67.91, 324.1 71.3 C326.66 74.69, 329.11 78.17, 331.43 81.73 C333.74 85.29, 335.93 88.94, 337.98 92.66 C340.03 96.37, 341.96 100.17, 343.73 104.01 C345.51 107.86, 347.16 111.79, 348.65 115.75 C350.15 119.71, 351.5 123.74, 352.71 127.8 C353.91 131.86, 354.98 135.97, 355.89 140.11 C356.8 144.24, 357.56 148.42, 358.17 152.61 C358.78 156.8, 359.24 161.02, 359.54 165.24 C359.85 169.46, 360 173.7, 360 177.93" stroke="#364fc7" stroke-width="2" fill="none"></path></g><g transform="translate(909.2448792896007 272.7356185487224) rotate(0 48 21)"><text x="0" y="33" font-family="Helvetica, Segoe UI Emoji" font-size="36px" fill="#364fc7" text-anchor="start" style="white-space: pre;" direction="ltr">React</text></g><g stroke-linecap="round"><g transform="translate(1160.01433628885 405.71197957800723) rotate(0 173.20079436752155 -1.3565559336329898)"><path d="M0 0 C105.67 -0.83, 211.35 -1.66, 346.4 -2.71 M0 0 C102.33 -0.8, 204.66 -1.6, 346.4 -2.71" stroke="#364fc7" stroke-width="2" fill="none"></path></g><g transform="translate(1160.01433628885 405.71197957800723) rotate(0 173.20079436752155 -1.3565559336329898)"><path d="M318.29 7.77 C326.87 4.57, 335.44 1.37, 346.4 -2.71 M318.29 7.77 C326.6 4.67, 334.9 1.58, 346.4 -2.71" stroke="#364fc7" stroke-width="2" fill="none"></path></g><g transform="translate(1160.01433628885 405.71197957800723) rotate(0 173.20079436752155 -1.3565559336329898)"><path d="M318.13 -12.75 C326.76 -9.69, 335.38 -6.63, 346.4 -2.71 M318.13 -12.75 C326.48 -9.79, 334.83 -6.82, 346.4 -2.71" stroke="#364fc7" stroke-width="2" fill="none"></path></g></g><g transform="translate(1199.7597160106975 318.21869646107916) rotate(0 116.5 32)"><text x="0" y="26" font-family="Helvetica, Segoe UI Emoji" font-size="28px" fill="#364fc7" text-anchor="start" style="white-space: pre;" direction="ltr">Re-run component</text><text x="0" y="58" font-family="Helvetica, Segoe UI Emoji" font-size="28px" fill="#364fc7" text-anchor="start" style="white-space: pre;" direction="ltr">with latest state</text></g><g stroke-linecap="round" transform="translate(1620.3483205711855 349.24694964839364) rotate(0 74.14659058319398 73.38209745783479)"><path d="M148.29 73.38 C148.29 76.12, 148.14 78.88, 147.83 81.6 C147.52 84.32, 147.05 87.04, 146.43 89.71 C145.82 92.38, 145.05 95.03, 144.13 97.62 C143.22 100.2, 142.15 102.75, 140.95 105.22 C139.75 107.69, 138.4 110.1, 136.93 112.42 C135.46 114.74, 133.84 116.99, 132.12 119.14 C130.39 121.28, 128.53 123.33, 126.58 125.27 C124.62 127.21, 122.54 129.05, 120.38 130.75 C118.21 132.46, 115.94 134.06, 113.59 135.52 C111.25 136.97, 108.81 138.31, 106.32 139.5 C103.82 140.69, 101.25 141.74, 98.64 142.65 C96.02 143.55, 93.34 144.31, 90.65 144.92 C87.95 145.53, 85.2 146, 82.45 146.3 C79.7 146.61, 76.91 146.76, 74.15 146.76 C71.38 146.76, 68.59 146.61, 65.84 146.3 C63.09 146, 60.35 145.53, 57.65 144.92 C54.95 144.31, 52.27 143.55, 49.66 142.65 C47.05 141.74, 44.47 140.69, 41.98 139.5 C39.48 138.31, 37.04 136.97, 34.7 135.52 C32.36 134.06, 30.08 132.46, 27.92 130.75 C25.75 129.05, 23.67 127.21, 21.72 125.27 C19.76 123.33, 17.9 121.28, 16.18 119.14 C14.45 116.99, 12.84 114.74, 11.36 112.42 C9.89 110.1, 8.54 107.69, 7.34 105.22 C6.14 102.75, 5.07 100.2, 4.16 97.62 C3.25 95.03, 2.47 92.38, 1.86 89.71 C1.24 87.04, 0.78 84.32, 0.47 81.6 C0.16 78.88, 0 76.12, 0 73.38 C0 70.64, 0.16 67.89, 0.47 65.17 C0.78 62.44, 1.24 59.72, 1.86 57.05 C2.47 54.38, 3.25 51.73, 4.16 49.15 C5.07 46.56, 6.14 44.01, 7.34 41.54 C8.54 39.08, 9.89 36.66, 11.36 34.34 C12.84 32.02, 14.45 29.77, 16.18 27.63 C17.9 25.49, 19.76 23.43, 21.72 21.49 C23.67 19.56, 25.75 17.72, 27.92 16.01 C30.08 14.3, 32.36 12.7, 34.7 11.25 C37.04 9.79, 39.48 8.46, 41.98 7.27 C44.47 6.08, 47.05 5.02, 49.66 4.12 C52.27 3.21, 54.95 2.45, 57.65 1.84 C60.35 1.23, 63.09 0.77, 65.84 0.46 C68.59 0.15, 71.38 0, 74.15 0 C76.91 0, 79.7 0.15, 82.45 0.46 C85.2 0.77, 87.95 1.23, 90.65 1.84 C93.34 2.45, 96.02 3.21, 98.64 4.12 C101.25 5.02, 103.82 6.08, 106.32 7.27 C108.81 8.46, 111.25 9.79, 113.59 11.25 C115.94 12.7, 118.21 14.3, 120.38 16.01 C122.54 17.72, 124.62 19.56, 126.58 21.49 C128.53 23.43, 130.39 25.49, 132.12 27.63 C133.84 29.77, 135.46 32.02, 136.93 34.34 C138.4 36.66, 139.75 39.08, 140.95 41.54 C142.15 44.01, 143.22 46.56, 144.13 49.15 C145.05 51.73, 145.82 54.38, 146.43 57.05 C147.05 59.72, 147.52 62.44, 147.83 65.17 C148.14 67.89, 148.22 72.01, 148.29 73.38 C148.37 74.75, 148.37 72.01, 148.29 73.38" stroke="#862e9c" stroke-width="2" fill="none"></path></g><g transform="translate(1661.4949111543795 401.62904710622934) rotate(0 33 21)"><text x="33" y="33" font-family="Helvetica, Segoe UI Emoji" font-size="36px" fill="#862e9c" text-anchor="middle" style="white-space: pre;" direction="ltr">App</text></g><g stroke-linecap="round" transform="translate(1515.8879705508266 181.34259951339118) rotate(0 180 177.92953350864445)"><path d="M360 177.93 C360 182.16, 359.85 186.4, 359.54 190.62 C359.24 194.84, 358.78 199.06, 358.17 203.25 C357.56 207.44, 356.8 211.62, 355.89 215.75 C354.98 219.89, 353.91 224, 352.71 228.06 C351.5 232.12, 350.15 236.15, 348.65 240.11 C347.16 244.07, 345.51 248, 343.73 251.84 C341.96 255.69, 340.03 259.49, 337.98 263.2 C335.93 266.92, 333.74 270.57, 331.43 274.13 C329.11 277.68, 326.66 281.17, 324.1 284.56 C321.53 287.95, 318.84 291.25, 316.03 294.45 C313.23 297.65, 310.31 300.75, 307.28 303.74 C304.25 306.74, 301.11 309.63, 297.87 312.4 C294.64 315.17, 291.3 317.83, 287.87 320.37 C284.44 322.91, 280.92 325.33, 277.32 327.61 C273.71 329.9, 270.02 332.07, 266.26 334.09 C262.51 336.12, 258.67 338.02, 254.77 339.78 C250.88 341.54, 246.91 343.16, 242.9 344.64 C238.89 346.12, 234.82 347.46, 230.71 348.65 C226.6 349.84, 222.44 350.89, 218.26 351.79 C214.08 352.69, 209.85 353.45, 205.62 354.05 C201.38 354.65, 197.11 355.1, 192.84 355.41 C188.57 355.71, 184.28 355.86, 180 355.86 C175.72 355.86, 171.43 355.71, 167.16 355.41 C162.89 355.1, 158.62 354.65, 154.38 354.05 C150.15 353.45, 145.92 352.69, 141.74 351.79 C137.56 350.89, 133.4 349.84, 129.29 348.65 C125.18 347.46, 121.11 346.12, 117.1 344.64 C113.09 343.16, 109.12 341.54, 105.23 339.78 C101.33 338.02, 97.49 336.12, 93.74 334.09 C89.98 332.07, 86.29 329.9, 82.68 327.61 C79.08 325.33, 75.56 322.91, 72.13 320.37 C68.7 317.83, 65.36 315.17, 62.13 312.4 C58.89 309.63, 55.75 306.74, 52.72 303.74 C49.69 300.75, 46.77 297.65, 43.97 294.45 C41.16 291.25, 38.47 287.95, 35.9 284.56 C33.34 281.17, 30.89 277.68, 28.57 274.13 C26.26 270.57, 24.07 266.92, 22.02 263.2 C19.97 259.49, 18.04 255.69, 16.27 251.84 C14.49 248, 12.84 244.07, 11.35 240.11 C9.85 236.15, 8.5 232.12, 7.29 228.06 C6.09 224, 5.02 219.89, 4.11 215.75 C3.2 211.62, 2.44 207.44, 1.83 203.25 C1.22 199.06, 0.76 194.84, 0.46 190.62 C0.15 186.4, 0 182.16, 0 177.93 C0 173.7, 0.15 169.46, 0.46 165.24 C0.76 161.02, 1.22 156.8, 1.83 152.61 C2.44 148.42, 3.2 144.24, 4.11 140.11 C5.02 135.97, 6.09 131.86, 7.29 127.8 C8.5 123.74, 9.85 119.71, 11.35 115.75 C12.84 111.79, 14.49 107.86, 16.27 104.01 C18.04 100.17, 19.97 96.37, 22.02 92.66 C24.07 88.94, 26.26 85.29, 28.57 81.73 C30.89 78.17, 33.34 74.69, 35.9 71.3 C38.47 67.91, 41.16 64.61, 43.97 61.41 C46.77 58.21, 49.69 55.11, 52.72 52.11 C55.75 49.12, 58.89 46.23, 62.13 43.46 C65.36 40.69, 68.7 38.03, 72.13 35.49 C75.56 32.95, 79.08 30.53, 82.68 28.25 C86.29 25.96, 89.98 23.79, 93.74 21.76 C97.49 19.74, 101.33 17.84, 105.23 16.08 C109.12 14.32, 113.09 12.7, 117.1 11.22 C121.11 9.74, 125.18 8.4, 129.29 7.21 C133.4 6.02, 137.56 4.97, 141.74 4.07 C145.92 3.17, 150.15 2.41, 154.38 1.81 C158.62 1.21, 162.89 0.76, 167.16 0.45 C171.43 0.15, 175.72 0, 180 0 C184.28 0, 188.57 0.15, 192.84 0.45 C197.11 0.76, 201.38 1.21, 205.62 1.81 C209.85 2.41, 214.08 3.17, 218.26 4.07 C222.44 4.97, 226.6 6.02, 230.71 7.21 C234.82 8.4, 238.89 9.74, 242.9 11.22 C246.91 12.7, 250.88 14.32, 254.77 16.08 C258.67 17.84, 262.51 19.74, 266.26 21.76 C270.02 23.79, 273.71 25.96, 277.32 28.25 C280.92 30.53, 284.44 32.95, 287.87 35.49 C291.3 38.03, 294.64 40.69, 297.87 43.46 C301.11 46.23, 304.25 49.12, 307.28 52.11 C310.31 55.11, 313.23 58.21, 316.03 61.41 C318.84 64.61, 321.53 67.91, 324.1 71.3 C326.66 74.69, 329.11 78.17, 331.43 81.73 C333.74 85.29, 335.93 88.94, 337.98 92.66 C340.03 96.37, 341.96 100.17, 343.73 104.01 C345.51 107.86, 347.16 111.79, 348.65 115.75 C350.15 119.71, 351.5 123.74, 352.71 127.8 C353.91 131.86, 354.98 135.97, 355.89 140.11 C356.8 144.24, 357.56 148.42, 358.17 152.61 C358.78 156.8, 359.24 161.02, 359.54 165.24 C359.85 169.46, 360 173.7, 360 177.93" stroke="#364fc7" stroke-width="2" fill="none"></path></g><g transform="translate(1638.588791892288 259.63535173164746) rotate(0 48 21)"><text x="0" y="33" font-family="Helvetica, Segoe UI Emoji" font-size="36px" fill="#364fc7" text-anchor="start" style="white-space: pre;" direction="ltr">React</text></g><g transform="translate(10 36.802031141589396) rotate(0 210.5 32)"><text x="0" y="26" font-family="Helvetica, Segoe UI Emoji" font-size="28px" fill="#000000" text-anchor="start" style="white-space: pre;" direction="ltr">When we click our button, a state </text><text x="0" y="58" font-family="Helvetica, Segoe UI Emoji" font-size="28px" fill="#000000" text-anchor="start" style="white-space: pre;" direction="ltr">change is notified to React</text></g><g transform="translate(754.3106877550008 10) rotate(0 215.5 64)"><text x="0" y="26" font-family="Helvetica, Segoe UI Emoji" font-size="28px" fill="#000000" text-anchor="start" style="white-space: pre;" direction="ltr">React now knows the component </text><text x="0" y="58" font-family="Helvetica, Segoe UI Emoji" font-size="28px" fill="#000000" text-anchor="start" style="white-space: pre;" direction="ltr">has an outdated state, and will</text><text x="0" y="90" font-family="Helvetica, Segoe UI Emoji" font-size="28px" fill="#000000" text-anchor="start" style="white-space: pre;" direction="ltr">command to re-run the component</text><text x="0" y="122" font-family="Helvetica, Segoe UI Emoji" font-size="28px" fill="#000000" text-anchor="start" style="white-space: pre;" direction="ltr">passing the latest state</text></g><g transform="translate(1460.2612115629754 19.156063976708538) rotate(0 218.5 32)"><text x="0" y="26" font-family="Helvetica, Segoe UI Emoji" font-size="28px" fill="#000000" text-anchor="start" style="white-space: pre;" direction="ltr">Component re-ran with latest state </text><text x="0" y="58" font-family="Helvetica, Segoe UI Emoji" font-size="28px" fill="#000000" text-anchor="start" style="white-space: pre;" direction="ltr">now outputs the latest view</text></g></svg>